HIERARCHY
ROOT hip
{
  OFFSET 0.00112043 5.09927 -9.65472
  CHANNELS 6 Xposition Yposition Zposition Zrotation Xrotation Yrotation
  JOINT abdomen
  {
    OFFSET 0 -1.186 -1.5018
    CHANNELS 3 Zrotation Xrotation Yrotation
    JOINT abdomen2
    {
      OFFSET 0 9.964 0.2134
      CHANNELS 3 Zrotation Xrotation Yrotation
      JOINT chest
      {
        OFFSET 0 13.134 -3.2573
        CHANNELS 3 Zrotation Xrotation Yrotation
        JOINT neck
        {
          OFFSET 0 20.686 -1.6905
          CHANNELS 3 Zrotation Xrotation Yrotation
          JOINT head
          {
            OFFSET 0 7.238 -0.1237
            CHANNELS 3 Zrotation Xrotation Yrotation
            End Site
            {
              OFFSET 0 0 0
            }
          }
        }
        JOINT lCollar
        {
          OFFSET 1.7069 20.075 5.0056
          CHANNELS 3 Zrotation Xrotation Yrotation
          JOINT lShldr
          {
            OFFSET 13.6458 -0.047 -4.849
            CHANNELS 3 Zrotation Xrotation Yrotation
            JOINT lForeArm
            {
              OFFSET 28.3255 -0.9759 2.2888
              CHANNELS 3 Zrotation Xrotation Yrotation
              JOINT lHand
              {
                OFFSET 22.1583 -0.53 10.8316
                CHANNELS 3 Zrotation Xrotation Yrotation
                JOINT lThumb1
                {
                  OFFSET 0.786 0.112 2.5817
                  CHANNELS 3 Zrotation Xrotation Yrotation
                  JOINT lThumb2
                  {
                    OFFSET 0.3601 -0.878 4.2331
                    CHANNELS 3 Zrotation Xrotation Yrotation
                    JOINT lThumb2_End
                    {
                      OFFSET 1.8127 -1.216 2.2227
                      CHANNELS 3 Zrotation Xrotation Yrotation
                      End Site
                      {
                        OFFSET 0.0181 -0.0122 0.0222
                      }
                    }
                  }
                }
                JOINT lCarpal1
                {
                  OFFSET 0.9571 1.114 1.7695
                  CHANNELS 3 Zrotation Xrotation Yrotation
                  JOINT lIndex1
                  {
                    OFFSET 4.1246 0.487 4.1451
                    CHANNELS 3 Zrotation Xrotation Yrotation
                    JOINT lIndex2
                    {
                      OFFSET 3.4052 -1.454 2.7682
                      CHANNELS 3 Zrotation Xrotation Yrotation
                      JOINT lIndex2_End
                      {
                        OFFSET 1.4531 -1.795 1.2713
                        CHANNELS 3 Zrotation Xrotation Yrotation
                        End Site
                        {
                          OFFSET 0.0145 -0.0179 0.0127
                        }
                      }
                    }
                  }
                  JOINT lMid1
                  {
                    OFFSET 5.6954 0.21 2.1184
                    CHANNELS 3 Zrotation Xrotation Yrotation
                    JOINT lMid2
                    {
                      OFFSET 3.9766 -1.54 2.3863
                      CHANNELS 3 Zrotation Xrotation Yrotation
                      JOINT lMid2_End
                      {
                        OFFSET 1.4042 -1.926 1.125
                        CHANNELS 3 Zrotation Xrotation Yrotation
                        End Site
                        {
                          OFFSET 0.014 -0.0193 0.0113
                        }
                      }
                    }
                  }
                }
                JOINT lCarpal2
                {
                  OFFSET 2.0956 0.66 -0.3894
                  CHANNELS 3 Zrotation Xrotation Yrotation
                  JOINT lRing1
                  {
                    OFFSET 5.0395 -0.09 2.4971
                    CHANNELS 3 Zrotation Xrotation Yrotation
                    JOINT lRing2
                    {
                      OFFSET 3.7921 -1.552 1.4806
                      CHANNELS 3 Zrotation Xrotation Yrotation
                      JOINT lRing2_End
                      {
                        OFFSET 1.4655 -1.808 0.9609
                        CHANNELS 3 Zrotation Xrotation Yrotation
                        End Site
                        {
                          OFFSET 0.0147 -0.0181 0.0096
                        }
                      }
                    }
                  }
                  JOINT lPinky1
                  {
                    OFFSET 4.9141 -1.269 0.3591
                    CHANNELS 3 Zrotation Xrotation Yrotation
                    JOINT lPinky2
                    {
                      OFFSET 3.1477 -1.685 0.8462
                      CHANNELS 3 Zrotation Xrotation Yrotation
                      JOINT lPinky2_End
                      {
                        OFFSET 0.8055 -1.585 0.7955
                        CHANNELS 3 Zrotation Xrotation Yrotation
                        End Site
                        {
                          OFFSET 0.0081 -0.0158 0.008
                        }
                      }
                    }
                  }
                }
              }
            }
          }
        }
        JOINT rCollar
        {
          OFFSET -1.7069 20.075 5.0056
          CHANNELS 3 Zrotation Xrotation Yrotation
          JOINT rShldr
          {
            OFFSET -13.6458 -0.047 -4.849
            CHANNELS 3 Zrotation Xrotation Yrotation
            JOINT rForeArm
            {
              OFFSET -28.3255 -0.9759 2.2888
              CHANNELS 3 Zrotation Xrotation Yrotation
              JOINT rHand
              {
                OFFSET -22.1583 -0.53 10.8316
                CHANNELS 3 Zrotation Xrotation Yrotation
                JOINT rThumb1
                {
                  OFFSET -0.786 0.112 2.5817
                  CHANNELS 3 Zrotation Xrotation Yrotation
                  JOINT rThumb2
                  {
                    OFFSET -0.3601 -0.878 4.2331
                    CHANNELS 3 Zrotation Xrotation Yrotation
                    JOINT rThumb2_End
                    {
                      OFFSET -1.8127 -1.216 2.2227
                      CHANNELS 3 Zrotation Xrotation Yrotation
                      End Site
                      {
                        OFFSET -0.0181 -0.0122 0.0222
                      }
                    }
                  }
                }
                JOINT rCarpal1
                {
                  OFFSET -0.9571 1.114 1.7695
                  CHANNELS 3 Zrotation Xrotation Yrotation
                  JOINT rIndex1
                  {
                    OFFSET -4.1246 0.487 4.1451
                    CHANNELS 3 Zrotation Xrotation Yrotation
                    JOINT rIndex2
                    {
                      OFFSET -3.4052 -1.454 2.7682
                      CHANNELS 3 Zrotation Xrotation Yrotation
                      JOINT rIndex2_End
                      {
                        OFFSET -1.4531 -1.795 1.2713
                        CHANNELS 3 Zrotation Xrotation Yrotation
                        End Site
                        {
                          OFFSET -0.0145 -0.018 0.0127
                        }
                      }
                    }
                  }
                  JOINT rMid1
                  {
                    OFFSET -5.6954 0.21 2.1184
                    CHANNELS 3 Zrotation Xrotation Yrotation
                    JOINT rMid2
                    {
                      OFFSET -3.9766 -1.54 2.3863
                      CHANNELS 3 Zrotation Xrotation Yrotation
                      JOINT rMid2_End
                      {
                        OFFSET -1.4042 -1.926 1.125
                        CHANNELS 3 Zrotation Xrotation Yrotation
                        End Site
                        {
                          OFFSET -0.014 -0.0193 0.0113
                        }
                      }
                    }
                  }
                }
                JOINT rCarpal2
                {
                  OFFSET -2.0956 0.66 -0.3894
                  CHANNELS 3 Zrotation Xrotation Yrotation
                  JOINT rRing1
                  {
                    OFFSET -5.0395 -0.09 2.4971
                    CHANNELS 3 Zrotation Xrotation Yrotation
                    JOINT rRing2
                    {
                      OFFSET -3.7921 -1.552 1.4806
                      CHANNELS 3 Zrotation Xrotation Yrotation
                      JOINT rRing2_End
                      {
                        OFFSET -1.4655 -1.808 0.9609
                        CHANNELS 3 Zrotation Xrotation Yrotation
                        End Site
                        {
                          OFFSET -0.0147 -0.0181 0.0096
                        }
                      }
                    }
                  }
                  JOINT rPinky1
                  {
                    OFFSET -4.9141 -1.269 0.3592
                    CHANNELS 3 Zrotation Xrotation Yrotation
                    JOINT rPinky2
                    {
                      OFFSET -3.1477 -1.685 0.8462
                      CHANNELS 3 Zrotation Xrotation Yrotation
                      JOINT rPinky2_End
                      {
                        OFFSET -0.8055 -1.585 0.7955
                        CHANNELS 3 Zrotation Xrotation Yrotation
                        End Site
                        {
                          OFFSET -0.0081 -0.0158 0.008
                        }
                      }
                    }
                  }
                }
              }
            }
          }
        }
      }
    }
  }
  JOINT lThigh
  {
    OFFSET 8.367 -8.2066 0.5982
    CHANNELS 3 Zrotation Xrotation Yrotation
    JOINT lShin
    {
      OFFSET 2.1923 -43.463 -0.4932
      CHANNELS 3 Zrotation Xrotation Yrotation
      JOINT lFoot
      {
        OFFSET 0.7333 -45.8593 -2.6451
        CHANNELS 3 Zrotation Xrotation Yrotation
        End Site
        {
          OFFSET 2.6618 -4.2699 12.3931
        }
      }
    }
  }
  JOINT rThigh
  {
    OFFSET -8.367 -8.2066 0.5982
    CHANNELS 3 Zrotation Xrotation Yrotation
    JOINT rShin
    {
      OFFSET -2.1923 -43.463 -0.4931
      CHANNELS 3 Zrotation Xrotation Yrotation
      JOINT rFoot
      {
        OFFSET -0.7333 -45.8593 -2.6451
        CHANNELS 3 Zrotation Xrotation Yrotation
        End Site
        {
          OFFSET -2.6618 -4.2699 12.3931
        }
      }
    }
  }
}
MOTION
Frames:	4
Frame Time:	0.0333333
0 91.7903 2.51682 0 0 -0 0 0 -0 0 0 -0 0 0 -0 0 0 -0 0 0 -0 0 0 -0 1.66051 0.0835086 5.75766 -0.0175111 0.895433 15.7816 7.95139e-016 -1.98785e-016 -0 5.46658e-016 -3.97569e-016 -0 5.96354e-016 0 -0 3.97569e-016 1.98785e-016 9.54166e-015 1.49089e-016 -3.97569e-016 -0 6.4605e-016 0 3.18055e-015 5.96354e-016 0 3.18055e-015 8.94531e-016 -1.98785e-016 6.36111e-015 6.4605e-016 0 3.18055e-015 5.96354e-016 0 3.18055e-015 8.94531e-016 -1.98785e-016 6.36111e-015 1.49089e-016 -3.97569e-016 -0 6.4605e-016 0 3.18055e-015 5.96354e-016 0 3.18055e-015 8.94531e-016 -1.98785e-016 6.36111e-015 6.4605e-016 0 3.18055e-015 5.96354e-016 0 3.18055e-015 8.94531e-016 -1.98785e-016 6.36111e-015 0 0 -0 -1.4496 0.0636048 -5.0245 -1.74811 1.20616 -16.8394 -1.19271e-015 1.98785e-016 -3.18055e-015 -3.97569e-016 1.98785e-016 -3.18055e-015 -2.98177e-016 1.98785e-016 -3.18055e-015 -2.98177e-016 3.97569e-016 -0 4.96962e-016 0 -6.36111e-015 -9.93923e-017 3.97569e-016 -0 -8.94531e-016 5.96354e-016 -0 -3.97569e-016 3.97569e-016 -0 -9.93923e-017 3.97569e-016 -0 -8.94531e-016 5.96354e-016 -0 -3.97569e-016 3.97569e-016 -0 4.96962e-016 0 -6.36111e-015 -9.93923e-017 3.97569e-016 -0 -8.94531e-016 5.96354e-016 -0 -3.97569e-016 3.97569e-016 -0 -9.93923e-017 3.97569e-016 -0 -8.94531e-016 5.96354e-016 -0 -3.97569e-016 3.97569e-016 -0 -4.66111 -0.998717 0.12318 0.00986924 1.54847 0.176523 4.65186 -0.572283 -0.254274 4.66111 -0.998765 -0.123176 -0.00986867 1.54869 -0.176537 -4.65186 -0.572453 0.25427 
0.00167625 22.2991 9.61336 0 63.2548 -0 -0.282953 3.39867 -0.0495054 -0.564453 6.79754 -0.0823803 -0.564453 6.79755 -0.08238 -0.022086 -21.3745 -0.0132916 -0.0695336 -19.9096 -0.0281738 -7.132 -0.173268 4.21142e-006 -68.267 -11.6047 -50.6753 44.2542 -19.6934 -85.2696 -3.41705 8.24982 -0.383441 -3.18055e-015 5.96354e-015 -4.77083e-015 1.5552e-006 7.35283e-007 -1.40889e-007 -1.76556e-031 -3.18055e-015 -3.18055e-015 -1.59028e-015 1.98785e-015 -1.59028e-015 -2.75869e-031 1.98785e-015 7.95139e-015 1.5552e-006 7.35283e-007 -1.40889e-007 -1.59028e-015 0 -3.18055e-015 -2.75869e-031 1.98785e-015 7.95139e-015 1.5552e-006 7.35283e-007 -1.40889e-007 -1.59028e-015 0 -3.18055e-015 -1.59028e-015 1.98785e-015 -1.59028e-015 -2.75869e-031 1.98785e-015 7.95139e-015 1.5552e-006 7.35283e-007 -1.40889e-007 -1.59028e-015 0 -3.18055e-015 -2.75869e-031 1.98785e-015 7.95139e-015 1.5552e-006 7.35283e-007 -1.40889e-007 -1.59028e-015 0 -3.18055e-015 7.12888 -0.173485 -5.85137e-006 68.3989 -11.4447 51.4328 -44.6552 -20.7655 84.3415 3.34903 8.25524 0.607526 -2.70376e-007 -3.19909e-007 8.15849e-008 1.00926e-006 -1.40141e-006 3.57527e-008 -2.70376e-007 -3.19909e-007 8.15849e-008 -8.82781e-032 -1.59028e-015 -3.18055e-015 -2.70376e-007 -3.19909e-007 8.15849e-008 1.00926e-006 -1.40141e-006 3.57527e-008 -2.70376e-007 -3.19909e-007 8.15849e-008 -2.70376e-007 -3.19909e-007 8.15849e-008 1.00926e-006 -1.40141e-006 3.57527e-008 -2.70376e-007 -3.19909e-007 8.15849e-008 -8.82781e-032 -1.59028e-015 -3.18055e-015 -2.70376e-007 -3.19909e-007 8.15849e-008 1.00926e-006 -1.40141e-006 3.57527e-008 -2.70376e-007 -3.19909e-007 8.15849e-008 -2.70376e-007 -3.19909e-007 8.15849e-008 1.00926e-006 -1.40141e-006 3.57527e-008 -2.70376e-007 -3.19909e-007 8.15849e-008 93.8028 -39.7077 85.843 -175.998 64.9675 -177.068 10.3556 21.7518 2.66184 -93.8173 -39.6468 -85.8692 176.118 64.9812 176.982 -10.3418 22.2774 -2.65675 
0.00288464 10.4019 9.07818 0 73.8228 -0 -0.337907 3.89983 -0.0461771 -0.67501 7.79989 -0.0694801 -0.67501 7.79985 -0.0694805 0.250711 -25.1117 0.148566 0.126781 -23.1956 0.0506891 -8.29905 -0.201656 2.37153e-006 -81.4911 -10.5046 -59.9448 46.1333 -35.6735 -95.381 -3.96973 9.59812 -0.466676 1.17835e-006 -1.93344e-007 -1.78737e-007 1.17835e-006 -1.93344e-007 -1.78737e-007 1.17835e-006 -1.93344e-007 -1.78737e-007 7.72434e-031 -6.95746e-015 6.36111e-015 1.17835e-006 -1.93344e-007 -1.78737e-007 1.17835e-006 -1.93344e-007 -1.78737e-007 1.17835e-006 -1.93344e-007 -1.78737e-007 1.17835e-006 -1.93344e-007 -1.78737e-007 1.17835e-006 -1.93344e-007 -1.78737e-007 1.17835e-006 -1.93344e-007 -1.78737e-007 7.72434e-031 -6.95746e-015 6.36111e-015 1.17835e-006 -1.93344e-007 -1.78737e-007 1.17835e-006 -1.93344e-007 -1.78737e-007 1.17835e-006 -1.93344e-007 -1.78737e-007 1.17835e-006 -1.93344e-007 -1.78737e-007 1.17835e-006 -1.93344e-007 -1.78737e-007 1.17835e-006 -1.93344e-007 -1.78737e-007 8.29542 -0.201903 -3.11644e-006 81.5938 -10.3252 60.694 -46.3697 -36.7051 94.5787 3.88759 9.60375 0.728614 1.69323e-006 8.40279e-007 -2.43812e-007 7.95139e-016 3.37934e-015 -3.18055e-015 6.74757e-007 -5.09235e-007 -9.27982e-008 1.43452e-031 2.5842e-015 -3.18055e-015 1.69323e-006 8.40279e-007 -2.43812e-007 -7.95139e-016 1.78906e-015 -0 6.74757e-007 -5.09235e-007 -9.27982e-008 1.69323e-006 8.40279e-007 -2.43812e-007 -7.95139e-016 1.78906e-015 -0 6.74757e-007 -5.09235e-007 -9.27982e-008 1.43452e-031 2.5842e-015 -3.18055e-015 1.69323e-006 8.40279e-007 -2.43812e-007 -7.95139e-016 1.78906e-015 -0 6.74757e-007 -5.09235e-007 -9.27982e-008 1.69323e-006 8.40279e-007 -2.43812e-007 -7.95139e-016 1.78906e-015 -0 6.74757e-007 -5.09235e-007 -9.27982e-008 116.453 -32.0041 102.415 -177.356 46.6165 -173.124 10.8628 27.1067 4.36027 -116.454 -31.9377 -102.424 177.466 46.6265 173.046 -10.8236 27.7111 -4.36495 
0.00252884 13.3816 9.28541 0 71.4645 -0 -0.323554 3.69018 -0.0488169 -0.645967 7.38057 -0.0769405 -0.645967 7.38055 -0.0769405 0.593249 -24.5207 0.353475 0.388649 -22.4028 0.155994 -8.00265 -0.194493 -3.77665e-006 -78.133 -10.8867 -57.6143 45.995 -31.4628 -92.8728 -3.82958 9.25575 -0.444984 -5.86628e-008 -8.11258e-007 -1.42723e-006 1.0682e-006 -5.37552e-007 1.19876e-006 -5.86629e-008 -8.11257e-007 -1.42723e-006 4.96962e-016 1.21756e-015 -3.18055e-015 -5.86628e-008 -8.11258e-007 -1.42723e-006 1.0682e-006 -5.37552e-007 1.19876e-006 -5.86629e-008 -8.11257e-007 -1.42723e-006 -5.86628e-008 -8.11258e-007 -1.42723e-006 1.0682e-006 -5.37552e-007 1.19876e-006 -5.86629e-008 -8.11257e-007 -1.42723e-006 4.96962e-016 1.21756e-015 -3.18055e-015 -5.86628e-008 -8.11258e-007 -1.42723e-006 1.0682e-006 -5.37552e-007 1.19876e-006 -5.86629e-008 -8.11257e-007 -1.42723e-006 -5.86628e-008 -8.11258e-007 -1.42723e-006 1.0682e-006 -5.37552e-007 1.19876e-006 -5.86629e-008 -8.11257e-007 -1.42723e-006 7.99916 -0.194725 2.34419e-006 78.2434 -10.7119 58.3657 -46.2745 -32.506 92.0293 3.7511 9.26135 0.697253 -5.20252e-007 -6.64631e-007 1.01587e-007 -2.11209e-016 5.62188e-015 -0 -1.0405e-006 -1.32926e-006 2.03174e-007 1.2424e-016 3.13396e-015 -1.59028e-015 -5.20252e-007 -6.64631e-007 1.01587e-007 5.96354e-016 2.13383e-015 1.59028e-015 -1.0405e-006 -1.32926e-006 2.03174e-007 -5.20252e-007 -6.64631e-007 1.01587e-007 5.96354e-016 2.13383e-015 1.59028e-015 -1.0405e-006 -1.32926e-006 2.03174e-007 1.2424e-016 3.13396e-015 -1.59028e-015 -5.20252e-007 -6.64631e-007 1.01587e-007 5.96354e-016 2.13383e-015 1.59028e-015 -1.0405e-006 -1.32926e-006 2.03174e-007 -5.20252e-007 -6.64631e-007 1.01587e-007 5.96354e-016 2.13383e-015 1.59028e-015 -1.0405e-006 -1.32926e-006 2.03174e-007 111.218 -34.1926 98.6928 -177.078 51.2719 -174.225 10.4399 25.6437 3.94948 -111.222 -34.1277 -98.7048 177.189 51.2829 174.147 -10.409 26.2152 -3.95231 
